<svg xmlns="http://www.w3.org/2000/svg" xmlns:xlink="http://www.w3.org/1999/xlink" width="150" zoomAndPan="magnify" viewBox="0 0 112.5 47.25" height="63" preserveAspectRatio="xMidYMid meet" version="1.0"><defs><clipPath id="5e20945255"><path d="M 3.101562 13.144531 L 23.324219 13.144531 L 23.324219 33.367188 L 3.101562 33.367188 Z M 3.101562 13.144531 " clip-rule="nonzero"/></clipPath><clipPath id="000c19e514"><path d="M 13.214844 13.144531 C 7.628906 13.144531 3.101562 17.671875 3.101562 23.257812 C 3.101562 28.839844 7.628906 33.367188 13.214844 33.367188 C 18.796875 33.367188 23.324219 28.839844 23.324219 23.257812 C 23.324219 17.671875 18.796875 13.144531 13.214844 13.144531 Z M 13.214844 13.144531 " clip-rule="nonzero"/></clipPath><clipPath id="c47ce3b8b2"><path d="M 35.84375 9.777344 L 62.800781 9.777344 L 62.800781 36.734375 L 35.84375 36.734375 Z M 35.84375 9.777344 " clip-rule="nonzero"/></clipPath><clipPath id="25cf7ede50"><path d="M 49.324219 9.777344 C 41.878906 9.777344 35.84375 15.8125 35.84375 23.253906 C 35.84375 30.699219 41.878906 36.734375 49.324219 36.734375 C 56.765625 36.734375 62.800781 30.699219 62.800781 23.253906 C 62.800781 15.8125 56.765625 9.777344 49.324219 9.777344 Z M 49.324219 9.777344 " clip-rule="nonzero"/></clipPath><clipPath id="964f65460d"><path d="M 75.203125 6.40625 L 108.90625 6.40625 L 108.90625 40.105469 L 75.203125 40.105469 Z M 75.203125 6.40625 " clip-rule="nonzero"/></clipPath><clipPath id="69fd6f01e2"><path d="M 92.054688 6.40625 C 82.75 6.40625 75.203125 13.949219 75.203125 23.253906 C 75.203125 32.5625 82.75 40.105469 92.054688 40.105469 C 101.359375 40.105469 108.90625 32.5625 108.90625 23.253906 C 108.90625 13.949219 101.359375 6.40625 92.054688 6.40625 Z M 92.054688 6.40625 " clip-rule="nonzero"/></clipPath><clipPath id="e8b64a369d"><path d="M 28.023438 6.40625 L 31.257812 6.40625 L 31.257812 40.109375 L 28.023438 40.109375 Z M 28.023438 6.40625 " clip-rule="nonzero"/></clipPath><clipPath id="6c299eb60d"><path d="M 29.640625 6.40625 C 30.535156 6.40625 31.257812 7.128906 31.257812 8.023438 L 31.257812 38.488281 C 31.257812 38.917969 31.089844 39.328125 30.785156 39.632812 C 30.480469 39.9375 30.070312 40.105469 29.640625 40.105469 C 29.210938 40.105469 28.800781 39.9375 28.496094 39.632812 C 28.195312 39.328125 28.023438 38.917969 28.023438 38.488281 L 28.023438 8.023438 C 28.023438 7.128906 28.746094 6.40625 29.640625 6.40625 Z M 29.640625 6.40625 " clip-rule="nonzero"/></clipPath><clipPath id="2a599ecba9"><path d="M 67.386719 3.035156 L 70.621094 3.035156 L 70.621094 43.476562 L 67.386719 43.476562 Z M 67.386719 3.035156 " clip-rule="nonzero"/></clipPath><clipPath id="aa2fe267e8"><path d="M 69.003906 3.035156 C 69.898438 3.035156 70.621094 3.761719 70.621094 4.652344 L 70.621094 41.859375 C 70.621094 42.289062 70.449219 42.699219 70.148438 43.003906 C 69.84375 43.304688 69.433594 43.476562 69.003906 43.476562 C 68.574219 43.476562 68.164062 43.304688 67.859375 43.003906 C 67.554688 42.699219 67.386719 42.289062 67.386719 41.859375 L 67.386719 4.652344 C 67.386719 3.761719 68.109375 3.035156 69.003906 3.035156 Z M 69.003906 3.035156 " clip-rule="nonzero"/></clipPath></defs><g clip-path="url(#5e20945255)"><g clip-path="url(#000c19e514)"><path stroke-linecap="butt" transform="matrix(0.269602, 0, 0, 0.269602, 3.103461, 13.145787)" fill="none" stroke-linejoin="miter" d="M 37.504856 -0.00465902 C 16.785655 -0.00465902 -0.00704091 16.788036 -0.00704091 37.507238 C -0.00704091 58.211951 16.785655 75.004646 37.504856 75.004646 C 58.209569 75.004646 75.002264 58.211951 75.002264 37.507238 C 75.002264 16.788036 58.209569 -0.00465902 37.504856 -0.00465902 Z M 37.504856 -0.00465902 " stroke="#ff914d" stroke-width="27.384117" stroke-opacity="1" stroke-miterlimit="4"/></g></g><g clip-path="url(#c47ce3b8b2)"><g clip-path="url(#25cf7ede50)"><path stroke-linecap="butt" transform="matrix(0.269602, 0, 0, 0.269602, 35.842208, 9.775759)" fill="none" stroke-linejoin="miter" d="M 50.007092 0.00587817 C 22.391149 0.00587817 0.00571832 22.391309 0.00571832 49.992763 C 0.00571832 77.608706 22.391149 99.994137 50.007092 99.994137 C 77.608546 99.994137 99.993977 77.608706 99.993977 49.992763 C 99.993977 22.391309 77.608546 0.00587817 50.007092 0.00587817 Z M 50.007092 0.00587817 " stroke="#ff914d" stroke-width="27.384117" stroke-opacity="1" stroke-miterlimit="4"/></g></g><g clip-path="url(#964f65460d)"><g clip-path="url(#69fd6f01e2)"><path stroke-linecap="butt" transform="matrix(0.269602, 0, 0, 0.269602, 75.204096, 6.405735)" fill="none" stroke-linejoin="miter" d="M 62.501736 0.00191151 C 27.989053 0.00191151 -0.00360297 27.980078 -0.00360297 62.492762 C -0.00360297 97.019935 27.989053 124.998101 62.501736 124.998101 C 97.01442 124.998101 125.007076 97.019935 125.007076 62.492762 C 125.007076 27.980078 97.01442 0.00191151 62.501736 0.00191151 Z M 62.501736 0.00191151 " stroke="#ff914d" stroke-width="27.384117" stroke-opacity="1" stroke-miterlimit="4"/></g></g><g clip-path="url(#e8b64a369d)"><g clip-path="url(#6c299eb60d)"><path fill="#ff914d" d="M 28.023438 6.40625 L 31.257812 6.40625 L 31.257812 40.109375 L 28.023438 40.109375 Z M 28.023438 6.40625 " fill-opacity="1" fill-rule="nonzero"/></g></g><g clip-path="url(#2a599ecba9)"><g clip-path="url(#aa2fe267e8)"><path fill="#ff914d" d="M 67.386719 3.035156 L 70.621094 3.035156 L 70.621094 43.476562 L 67.386719 43.476562 Z M 67.386719 3.035156 " fill-opacity="1" fill-rule="nonzero"/></g></g></svg>